<?xml version="1.0" standalone="no"?><svg xmlns:xlink="http://www.w3.org/1999/xlink" xmlns="http://www.w3.org/2000/svg" viewBox="0 0 150 150" preserveAspectRatio="xMaxYMax slice"><g transform="scale(0.33156498673740054)"><rect x="0" y="0" width="452.4" height="452.4" fill="#ffffff"/><path d="M 0 0 A 113.1 113.1 0 0 0 113.1 113.1 L 113.1 0" fill="#f9ea65"/><circle cx="169.64999999999998" cy="56.55" r="56.55" fill="#f9ea65"/><path d="M 226.2 0 A 113.1 113.1 0 0 0 339.29999999999995 113.1 L 339.29999999999995 0" fill="#000000"/><rect x="339.3" y="0" width="113.1" height="113.1" fill="#000000"/><circle cx="56.55" cy="169.64999999999998" r="56.55" fill="#f9ea65"/><rect x="113.1" y="113.1" width="113.1" height="113.1" fill="#000000"/><circle cx="282.75" cy="169.64999999999998" r="56.55" fill="#000000"/><circle cx="395.85" cy="169.64999999999998" r="56.55" fill="#f9ea65"/><path d="M 0 339.29999999999995 A 113.1 113.1 0 0 0 113.1 226.2 L 0 226.2" fill="#f9ea65"/><rect x="113.1" y="226.2" width="113.1" height="113.1" fill="#f9ea65"/><circle cx="282.75" cy="282.75" r="56.55" fill="#f9ea65"/><circle cx="395.85" cy="282.75" r="56.55" fill="#f9ea65"/><rect x="0" y="339.3" width="113.1" height="113.1" fill="#000000"/><circle cx="169.64999999999998" cy="395.85" r="56.55" fill="#000000"/><path d="M 226.2 339.3 A 113.1 113.1 0 0 1 339.29999999999995 452.4 L 226.2 452.4" fill="#d3d3d3"/><circle cx="395.85" cy="395.85" r="56.55" fill="#000000"/></g></svg>