<?xml version="1.0" standalone="no"?><svg xmlns:xlink="http://www.w3.org/1999/xlink" xmlns="http://www.w3.org/2000/svg" viewBox="0 0 150 150" preserveAspectRatio="xMaxYMax slice"><g transform="scale(0.3791708796764408)"><rect x="0" y="0" width="395.6" height="395.6" fill="#ffffff"/><rect x="0" y="0" width="131.87" height="131.87" fill="#010309"/><circle cx="197.805" cy="65.935" r="65.935" fill="#f9ea65"/><path d="M 263.73 131.87 A 131.87 131.87 0 0 1  395.6 0 L 395.6 131.87" fill="#f9ea65"/><circle cx="65.935" cy="197.805" r="65.935" fill="#010309"/><rect x="131.87" y="131.87" width="131.87" height="131.87" fill="#d3d3d3"/><rect x="263.73" y="131.87" width="131.87" height="131.87" fill="#010309"/><path d="M 0 395.6 A 131.87 131.87 0 0 1  131.87 263.73 L 0 395.6 A 131.87 131.87 0 0 0 131.87 263.73" fill="#010309"/><path d="M 131.87 395.6 A 131.87 131.87 0 0 0 263.74 263.73 L 131.87 263.73" fill="#d3d3d3"/><rect x="263.73" y="263.73" width="131.87" height="131.87" fill="#f9ea65"/></g></svg>