<?xml version="1.0" standalone="no"?><svg xmlns:xlink="http://www.w3.org/1999/xlink" xmlns="http://www.w3.org/2000/svg" viewBox="0 0 150 250.00184204127643" preserveAspectRatio="xMaxYMax slice"><g transform="scale(0.5526123829382769)"><rect x="0" y="0" width="271.43999999999994" height="452.4" fill="#ffffff"/><circle cx="45.24" cy="45.24" r="45.24" fill="#f9ea65"/><path d="M 90.48 0 A 90.48 90.48 0 0 1  180.96 90.48 L 90.48 0 A 90.48 90.48 0 0 0 180.96 90.48" fill="#010309"/><path d="M 180.96 0 A 90.48 90.48 0 0 0 271.44 90.48 L 271.44 0" fill="#f9ea65"/><circle cx="45.24" cy="135.72" r="45.24" fill="#010309"/><path d="M 90.48 180.96 A 90.48 90.48 0 0 0 180.96 90.48 L 90.48 90.48" fill="#f9ea65"/><path d="M 180.96 180.96 A 90.48 90.48 0 0 1  271.44 90.48 L 180.96 180.96 A 90.48 90.48 0 0 0 271.44 90.48" fill="#f9ea65"/><circle cx="45.24" cy="226.20000000000002" r="45.24" fill="#010309"/><circle cx="135.72" cy="226.20000000000002" r="45.24" fill="#d3d3d3"/><path d="M 180.96 180.96 A 90.48 90.48 0 0 1 271.44 271.44 L 180.96 271.44" fill="#010309"/><circle cx="45.24" cy="316.68" r="45.24" fill="#f9ea65"/><circle cx="135.72" cy="316.68" r="45.24" fill="#d3d3d3"/><circle cx="226.20000000000002" cy="316.68" r="45.24" fill="#010309"/><path d="M 0 452.40000000000003 A 90.48 90.48 0 0 1  90.48 361.92 L 90.48 452.40000000000003" fill="#f9ea65"/><path d="M 90.48 452.40000000000003 A 90.48 90.48 0 0 1  180.96 361.92 L 90.48 452.40000000000003 A 90.48 90.48 0 0 0 180.96 361.92" fill="#f9ea65"/><circle cx="226.20000000000002" cy="407.16" r="45.24" fill="#010309"/></g></svg>