<?xml version="1.0" standalone="no"?><svg xmlns:xlink="http://www.w3.org/1999/xlink" xmlns="http://www.w3.org/2000/svg" viewBox="0 0 200 150.0010427271676" preserveAspectRatio="xMaxYMax slice"><g transform="scale(0.3791735154882902)"><rect x="0" y="0" width="527.4666666666667" height="395.6" fill="#ffffff"/><path d="M 0 131.87 A 131.87 131.87 0 0 0 131.87 0 L 0 0" fill="#d3d3d3"/><circle cx="197.805" cy="65.935" r="65.935" fill="#010309"/><path d="M 263.73 0 A 131.87 131.87 0 0 1 395.6 131.87 L 263.73 131.87" fill="#d3d3d3"/><circle cx="461.535" cy="65.935" r="65.935" fill="#f9ea65"/><rect x="0" y="131.87" width="131.87" height="131.87" fill="#f9ea65"/><path d="M 131.87 131.87 A 131.87 131.87 0 0 0 263.74 263.74 L 263.74 131.87" fill="#010309"/><path d="M 263.73 263.74 A 131.87 131.87 0 0 1  395.6 131.87 L 395.6 263.74" fill="#d3d3d3"/><circle cx="461.535" cy="197.805" r="65.935" fill="#010309"/><circle cx="65.935" cy="329.665" r="65.935" fill="#010309"/><rect x="131.87" y="263.73" width="131.87" height="131.87" fill="#d3d3d3"/><circle cx="329.665" cy="329.665" r="65.935" fill="#010309"/><path d="M 395.6 263.73 A 131.87 131.87 0 0 0 527.47 395.6 L 527.47 263.73" fill="#f9ea65"/></g></svg>