<svg id="Layer_1" enable-background="new 0 0 512 512" height="512" viewBox="0 0 512 512" width="512" xmlns="http://www.w3.org/2000/svg"><path d="m392 512h-272c-66.168 0-120-53.832-120-120v-272c0-66.168 53.832-120 120-120h272c66.168 0 120 53.832 120 120v272c0 66.168-53.832 120-120 120zm-272-472c-44.112 0-80 35.888-80 80v272c0 44.112 35.888 80 80 80h272c44.112 0 80-35.888 80-80v-272c0-44.112-35.888-80-80-80zm261 302v-9c0-11.046-8.954-20-20-20s-20 8.954-20 20v9c0 22.056-17.944 40-40 40h-82c-22.056 0-40-17.944-40-40v-232c0-11.046-8.954-20-20-20s-20 8.954-20 20v232c0 44.112 35.888 80 80 80h82c44.112 0 80-35.888 80-80z"/></svg>