<?xml version="1.0" standalone="no"?><svg xmlns:xlink="http://www.w3.org/1999/xlink" xmlns="http://www.w3.org/2000/svg" viewBox="0 0 150 150" preserveAspectRatio="xMaxYMax slice"><g transform="scale(0.33156498673740054)"><rect x="0" y="0" width="452.4" height="452.4" fill="#ffffff"/><rect x="0" y="0" width="113.1" height="113.1" fill="#f9ea65"/><circle cx="169.64999999999998" cy="56.55" r="56.55" fill="#d3d3d3"/><circle cx="282.75" cy="56.55" r="56.55" fill="#010309"/><circle cx="395.85" cy="56.55" r="56.55" fill="#d3d3d3"/><path d="M 0 113.1 A 113.1 113.1 0 0 1  113.1 226.2 L 0 113.1 A 113.1 113.1 0 0 0 113.1 226.2" fill="#f9ea65"/><circle cx="169.64999999999998" cy="169.64999999999998" r="56.55" fill="#f9ea65"/><rect x="226.2" y="113.1" width="113.1" height="113.1" fill="#f9ea65"/><path d="M 339.3 113.1 A 113.1 113.1 0 0 1 452.4 226.2 L 339.3 226.2" fill="#f9ea65"/><rect x="0" y="226.2" width="113.1" height="113.1" fill="#f9ea65"/><rect x="113.1" y="226.2" width="113.1" height="113.1" fill="#010309"/><circle cx="282.75" cy="282.75" r="56.55" fill="#d3d3d3"/><path d="M 339.3 226.2 A 113.1 113.1 0 0 0 452.4 339.29999999999995 L 452.4 226.2" fill="#010309"/><circle cx="56.55" cy="395.85" r="56.55" fill="#010309"/><rect x="113.1" y="339.3" width="113.1" height="113.1" fill="#d3d3d3"/><circle cx="282.75" cy="395.85" r="56.55" fill="#f9ea65"/><path d="M 339.3 452.4 A 113.1 113.1 0 0 1  452.4 339.3 L 452.4 452.4" fill="#010309"/></g></svg>